# xmcd
#
# Track frame offsets:
#	150
#	18905
#	36197
#	56568
#	75397
#	101270
#	124779
#	139058
#	154332
#	169550
#	194258
#	210928
#	225291
#	247176
#	262124
#	279261
#
# Disc length: 4038 seconds
# Revision: 0
# Processed by: cddbd v1.5.2PL0 Copyright (c) Steve Scherf et al.
# Submitted via: dBpowerAMP V12.0
#
DISCID=cb0fc410
DTITLE=Carcass - Symphonies of Sickness
DYEAR=1989
DGENRE=Metal
TTITLE0=Reek of Putrefaction
TTITLE1=Exhume to Consume
TTITLE2=Excoriating Abdominal Emanation
TTITLE3=Ruptured in Purulence
TTITLE4=Empathological Necroticism
TTITLE5=Embryonic Necropsy and Devourment
TTITLE6=Swarming Vulgar Mass of Infected Virulency
TTITLE7=Cadaveric Incubator of Endoparasites
TTITLE8=Slash Dementia
TTITLE9=Crepitating Bowel Erosion
TTITLE10=Reek of Putrefaction (Demo)
TTITLE11=Slash Dementia (Demo)
TTITLE12=Embryonic Necropsy and Devourment (Demo)
TTITLE13=Cadaveric Incubator of Endoparasites (Demo)
TTITLE14=Ruptured in Purulence (Demo)
TTITLE15=Crepitating Bowel Erosion (Demo)
EXTD=
EXTT0=
EXTT1=
EXTT2=
EXTT3=
EXTT4=
EXTT5=
EXTT6=
EXTT7=
EXTT8=
EXTT9=
EXTT10=
EXTT11=
EXTT12=
EXTT13=
EXTT14=
EXTT15=
PLAYORDER=
